<?xml version="1.0" standalone="no"?>
<!DOCTYPE svg PUBLIC "-//W3C//DTD SVG 1.1//EN" "http://www.w3.org/Graphics/SVG/1.1/DTD/svg11.dtd" >
<svg xmlns="http://www.w3.org/2000/svg" xmlns:xlink="http://www.w3.org/1999/xlink" version="1.1">
<metadata>
Created by FontForge 20170924 at Tue Sep 15 10:52:20 2020
 By www-data
Copyright (c) 2019 by . All rights reserved.
</metadata>
<defs>
<font id="DashHorizon" horiz-adv-x="607" >
  <font-face 
    font-family="Dash Horizon"
    font-weight="400"
    font-stretch="normal"
    units-per-em="1000"
    panose-1="0 0 0 0 0 0 0 0 0 0"
    ascent="750"
    descent="-250"
    x-height="433"
    cap-height="709"
    bbox="2 -227 3322 777"
    underline-thickness="50"
    underline-position="-100"
    stemh="95"
    stemv="304"
    unicode-range="U+0020-007A"
  />
<missing-glyph horiz-adv-x="177" 
 />
    <glyph glyph-name="H_o_r_i_z_o_n" unicode="Horizon" horiz-adv-x="2695" 
d="M287 -68l102 386h-167l-81 -318h-132l169 642l-56 67h206l-80 -289h169l76 289h132l-207 -777c-6 -42 59 -42 59 -42h940l-181 -117l-876 5s-105 0 -73 154zM2610 434c6 0 13 0 19 -1h693l-100 -72h-543l-9 -40h482l-100 -72h-401l-7 -27h348l-100 -72h-268l-11 -40h196
l-100 -72h-117l-9 -37h-120l91 339h-111l-89 -339h-113l90 363l-56 69h193v-7c46 3 94 8 142 8zM889 433c35 0 74 -13 74 -53c0 -33 -70 -270 -82 -317c-13 -45 -51 -62 -95 -62h-180c-35 0 -71 11 -71 51c0 43 65 263 80 319c11 46 50 62 93 62h181zM835 342h-110l-65 -249
h110zM1286 434c34 0 74 -10 74 -52c0 -27 -16 -58 -22 -86l-132 -51l25 93h-84l-90 -337h-113l88 353l-63 79h204l-2 -6c36 2 76 7 115 7zM1413 471l30 114h122l-30 -114h-122zM1290 -5l116 438h118l-118 -438h-116zM1891 433l-14 -58l-248 -280h97l84 -94h-357l14 58
l247 281h-76l-84 93h337zM2198 433c35 0 74 -13 74 -53c0 -33 -70 -270 -82 -317c-13 -45 -51 -62 -95 -62h-180c-35 0 -71 11 -71 51c0 43 65 263 80 319c11 46 50 62 93 62h181zM2144 342h-110l-65 -249h110z" />
    <glyph glyph-name=".notdef" horiz-adv-x="177" 
 />
    <glyph glyph-name="c" unicode="c" horiz-adv-x="437" 
d="M354 433c34 0 73 -13 73 -53c0 -38 -21 -88 -30 -124l-105 50l10 36h-102l-65 -249h102l10 43l135 64c-22 -80 -23 -199 -131 -199h-170c-37 0 -70 14 -70 57c0 38 64 261 80 313c10 46 50 62 93 62h170z" />
    <glyph glyph-name="d" unicode="d" horiz-adv-x="522" 
d="M325 433l44 168l145 98l-186 -698h-119l2 7c-33 -4 -64 -8 -98 -8c-51 0 -109 25 -109 84c0 36 52 203 64 248c31 114 170 101 257 101zM192 342l-68 -244l110 -3l67 247h-109z" />
    <glyph glyph-name="e" unicode="e" horiz-adv-x="439" 
d="M357 433c35 0 75 -13 75 -53c0 -48 -32 -122 -44 -169l-42 -27h-189l-24 -92h96l73 -91h-220c-35 0 -71 12 -71 54c0 36 66 269 80 316c11 46 50 62 93 62h173zM182 273h105l19 70h-106z" />
    <glyph glyph-name="f" unicode="f" horiz-adv-x="471" 
d="M388 575h-115l-39 -142h158l-78 -91h-103l-143 -557l-60 240l83 317h-60l25 91h60c25 91 19 235 140 235h212z" />
    <glyph glyph-name="g" unicode="g" horiz-adv-x="502" 
d="M373 426l2 7h118l-138 -517c-9 -39 -59 -60 -95 -60h-252l94 91h142l14 54c-64 0 -200 -14 -200 86c0 67 44 186 62 251c18 62 84 96 144 96c37 0 73 -5 109 -8zM283 93l67 247c-22 2 -47 3 -69 3c-19 0 -43 -5 -49 -28c-19 -70 -36 -144 -57 -216c3 -6 21 -6 26 -6h82z
" />
    <glyph glyph-name="h" unicode="h" horiz-adv-x="456" 
d="M375 434c34 0 74 -10 74 -52c0 -32 -125 -503 -139 -568l-73 209l82 317h-108l-91 -339h-116l182 695l88 -116l-41 -154c47 3 95 8 142 8z" />
    <glyph glyph-name="i" unicode="i" horiz-adv-x="284" 
d="M127 471l30 114h122l-30 -114h-122zM4 -5l116 438h118l-118 -438h-116z" />
    <glyph glyph-name="j" unicode="j" horiz-adv-x="446" 
d="M288 471l31 114h120l-30 -114h-121zM155 -51l125 484h118l-138 -517c-13 -44 -49 -60 -94 -60h-162l80 93h71z" />
    <glyph glyph-name="k" unicode="k" horiz-adv-x="457" 
d="M209 319l127 114h115l-10 -38l-190 -163l188 -431l-188 152l-87 196l-40 -148h-120l186 698l88 -123z" />
    <glyph glyph-name="l" unicode="l" horiz-adv-x="310" 
d="M145 82l66 -81h-207l178 667h120z" />
    <glyph glyph-name="m" unicode="m" horiz-adv-x="693" 
d="M610 434c34 0 73 -10 73 -52c0 -28 -86 -332 -100 -381h-120l91 339h-109l-90 -339h-117l90 339h-109l-90 -339h-118l98 367l-54 65h190l-4 -7c47 3 96 8 142 8c19 0 37 -1 54 -11c56 4 116 11 173 11z" />
    <glyph glyph-name="n" unicode="n" horiz-adv-x="463" 
d="M380 434c36 0 72 -10 72 -52c0 -36 -86 -327 -99 -381h-120l91 339h-111l-89 -339h-113l90 363l-56 69h193v-7c46 3 94 8 142 8z" />
    <glyph glyph-name="o" unicode="o" horiz-adv-x="449" 
d="M365 433c35 0 74 -13 74 -53c0 -33 -70 -270 -82 -317c-13 -45 -51 -62 -95 -62h-180c-35 0 -71 11 -71 51c0 43 65 263 80 319c11 46 50 62 93 62h181zM311 342h-110l-65 -249h110z" />
    <glyph glyph-name="p" unicode="p" horiz-adv-x="498" 
d="M418 434c34 0 73 -10 73 -52c0 -28 -62 -240 -73 -280c-30 -113 -167 -101 -257 -101l-37 -145h-116l131 504l-58 73h197l-4 -7c50 6 95 8 144 8zM256 93c22 0 42 6 47 28l61 216h-113l-64 -244h69z" />
    <glyph glyph-name="q" unicode="q" horiz-adv-x="449" 
d="M319 426l5 7h117l-154 -577h-120l39 145c-100 0 -198 -19 -198 112c0 5 57 206 60 225c18 62 84 96 145 96c34 0 73 -5 106 -8zM232 93l64 247c-22 2 -45 3 -67 3c-20 0 -43 -6 -47 -28c-21 -68 -34 -149 -61 -214c6 -8 24 -8 28 -8h83z" />
    <glyph glyph-name="r" unicode="r" horiz-adv-x="433" 
d="M353 434c34 0 74 -10 74 -52c0 -27 -16 -58 -22 -86l-132 -51l25 93h-84l-90 -337h-113l88 353l-63 79h204l-2 -6c36 2 76 7 115 7z" />
    <glyph glyph-name="s" unicode="s" horiz-adv-x="415" 
d="M405 433l-104 -91h-97l-10 -35c35 -26 172 -96 172 -152c0 -74 -37 -154 -117 -154h-241l101 92h125l12 45c-35 23 -172 96 -172 153c0 74 35 142 115 142h216z" />
    <glyph glyph-name="t" unicode="t" horiz-adv-x="481" 
d="M352 342h-82l-66 -249h69l143 -92h-267c-35 0 -72 12 -72 54c0 38 61 237 72 287h-143l118 91h52l38 146l92 -106l-11 -40h179z" />
    <glyph glyph-name="u" unicode="u" horiz-adv-x="463" 
d="M246 95l90 338h119l-113 -425l-133 -63l13 66c-46 -9 -95 -11 -141 -11c-34 0 -73 11 -73 51c0 31 84 331 98 382h117l-88 -338h111z" />
    <glyph glyph-name="v" unicode="v" horiz-adv-x="427" 
d="M131 190l109 185l180 95l-282 -469h-100l-27 462l120 -108v-165z" />
    <glyph glyph-name="w" unicode="w" horiz-adv-x="570" 
d="M329 211l113 222h122l-235 -425l-106 -80v294l-114 -221h-98v432h107v-222l111 222h100v-222z" />
    <glyph glyph-name="x" unicode="x" horiz-adv-x="491" 
d="M273 315l100 118h109l-9 -36l-159 -178l118 -350l-169 142l-36 120l-111 -130h-112l11 37l169 190l-75 223l140 -58z" />
    <glyph glyph-name="y" unicode="y" horiz-adv-x="438" 
d="M164 190l143 243h126c-119 -200 -237 -401 -360 -598l-62 98l57 100l-24 400h120v-243z" />
    <glyph glyph-name="z" unicode="z" horiz-adv-x="455" 
d="M446 433l-14 -58l-248 -280h97l84 -94h-357l14 58l247 281h-76l-84 93h337z" />
    <glyph glyph-name="A" unicode="A" horiz-adv-x="475" 
d="M280 709h182v-891l-118 181v147h-137l-72 -147h-133l332 648zM360 247v215l-105 -215h105z" />
    <glyph glyph-name="B" unicode="B" horiz-adv-x="597" 
d="M511 709c35 0 77 -17 77 -57c0 -33 -44 -177 -56 -216c-10 -42 -44 -55 -81 -70c26 -12 47 -26 47 -57c0 -46 -48 -192 -62 -244c-11 -45 -55 -65 -99 -65h-328l168 637l-59 72h393zM312 101l53 191l-47 27h-96l-58 -218h148zM406 451l41 157h-144l-55 -188h81z" />
    <glyph glyph-name="C" unicode="C" horiz-adv-x="582" 
d="M571 650c0 -49 -33 -139 -45 -189l-117 59l24 88h-150l-136 -507h148l25 93l151 70c-24 -90 -24 -264 -152 -264h-231c-38 0 -79 20 -79 61c0 36 138 528 149 574l-57 74h394c35 0 76 -19 76 -59z" />
    <glyph glyph-name="D" unicode="D" horiz-adv-x="593" 
d="M422 709c71 0 161 -30 161 -114c0 -89 -90 -357 -117 -457c-24 -93 -130 -138 -219 -138h-238l160 607l-83 102h336zM238 101c41 0 90 12 102 56c10 45 110 402 110 422c0 24 -38 29 -57 29h-90l-139 -507h74z" />
    <glyph glyph-name="E" unicode="E" horiz-adv-x="548" 
d="M93 709h447l-91 -101h-149l-53 -198h134l-92 -100h-69l-56 -209h216l34 -101h-405l162 613z" />
    <glyph glyph-name="F" unicode="F" horiz-adv-x="543" 
d="M133 709h405l-89 -101h-149l-53 -201h142l-89 -103h-82l-77 -304h-132l170 652z" />
    <glyph glyph-name="G" unicode="G" horiz-adv-x="588" 
d="M579 650c0 -49 -33 -139 -48 -189h-132l40 147h-154l-135 -507h153l47 178h-95l25 102h228l-83 -316c-11 -44 -57 -65 -97 -65h-237c-34 0 -82 17 -82 60c0 25 139 522 155 580l-57 69h394c37 0 78 -17 78 -59z" />
    <glyph glyph-name="H" unicode="H" horiz-adv-x="634" 
d="M417 420l76 289h132l-188 -709h-132l84 318h-167l-81 -318h-132l169 642l-56 67h206l-80 -289h169z" />
    <glyph glyph-name="I" unicode="I" horiz-adv-x="334" 
d="M112 709h216l-189 -709h-132l167 633z" />
    <glyph glyph-name="J" unicode="J" horiz-adv-x="584" 
d="M369 709h207l-176 -644c-9 -45 -52 -65 -96 -65h-208c-39 0 -91 28 -76 76l49 188h129l-44 -163h126l145 541z" />
    <glyph glyph-name="K" unicode="K" horiz-adv-x="688" 
d="M265 481l262 296h152l-370 -416l205 -539l-174 85l-136 356l-65 -263h-132l170 643l-52 66h200z" />
    <glyph glyph-name="L" unicode="L" horiz-adv-x="487" 
d="M328 709l-164 -608h316l-132 -101h-339l166 627l-66 82h219z" />
    <glyph glyph-name="M" unicode="M" horiz-adv-x="751" 
d="M391 328l232 381h119l-186 -709h-126l82 320l-163 -259h-52l-25 270l-86 -331l-174 -183l211 808l-69 84h210z" />
    <glyph glyph-name="N" unicode="N" horiz-adv-x="676" 
d="M433 311l107 398h128l-188 -709h-95l-94 407l-125 -456l-157 -129l214 811l-62 76h183z" />
    <glyph glyph-name="O" unicode="O" 
d="M517 709c38 0 78 -17 78 -59c0 -35 -138 -517 -154 -585c-11 -44 -57 -65 -97 -65h-253c-39 0 -79 17 -79 61c0 32 131 507 149 571l-64 77h420zM319 101l136 507h-170l-135 -507h169z" />
    <glyph glyph-name="P" unicode="P" horiz-adv-x="595" 
d="M508 709c38 0 79 -17 79 -59c0 -35 -70 -272 -85 -322c-27 -101 -242 -65 -294 -65l-67 -263h-129l163 627l-66 82h399zM381 364l66 244h-144l-68 -244h146z" />
    <glyph glyph-name="Q" unicode="Q" horiz-adv-x="603" 
d="M514 709c34 0 79 -17 79 -57c0 -29 -138 -525 -156 -587c-11 -45 -55 -65 -97 -65h-252c-32 0 -81 17 -81 58c0 28 134 511 150 574l-63 77h420zM316 101l135 507h-167l-136 -507h168zM309 -105l-56 259h131l90 -376z" />
    <glyph glyph-name="R" unicode="R" horiz-adv-x="603" 
d="M515 709c36 0 78 -17 78 -57c0 -27 -59 -232 -70 -271c-15 -53 -78 -66 -124 -66l-18 1l107 -494l-170 173l-81 386l-98 -381h-132l168 635l-60 74h400zM400 417l51 191h-152l-52 -191h153z" />
    <glyph glyph-name="S" unicode="S" horiz-adv-x="648" 
d="M639 709l-62 -101h-236l-29 -107c41 -46 202 -202 202 -262c0 -16 -40 -157 -44 -174c-13 -45 -53 -65 -97 -65h-364l59 101h280l34 127c-38 44 -200 201 -200 260c0 20 28 119 32 139l-66 82h491z" />
    <glyph glyph-name="T" unicode="T" horiz-adv-x="526" 
d="M60 526l49 183h411l-47 -177l-24 76h-96l-161 -608l-180 -178l210 786h-74z" />
    <glyph glyph-name="U" unicode="U" horiz-adv-x="619" 
d="M312 101l165 608h131l-173 -644c-10 -40 -59 -65 -98 -65h-244c-35 0 -81 17 -81 60c0 30 145 547 154 588l-48 61h197l-164 -608h161z" />
    <glyph glyph-name="V" unicode="V" horiz-adv-x="552" 
d="M193 709v-444l219 444h134l-358 -710h-118v613l-58 97h181z" />
    <glyph glyph-name="W" unicode="W" horiz-adv-x="741" 
d="M441 340l158 369h134l-324 -710h-106l28 401l-185 -401h-109l51 616l-76 94h215l-41 -365l170 365h111z" />
    <glyph glyph-name="X" unicode="X" horiz-adv-x="650" 
d="M361 498l153 211h125l-12 -37l-228 -312c34 -181 71 -359 107 -538l-169 173l-44 239l-160 -234h-128l8 37l247 331c-17 83 -33 170 -50 253l-72 88h190z" />
    <glyph glyph-name="Y" unicode="Y" horiz-adv-x="536" 
d="M222 429l182 280h126c-4 -11 -7 -27 -12 -37c-27 -51 -260 -368 -271 -401c-24 -92 -45 -181 -69 -271h-132l75 284l-52 355l-57 70h180z" />
    <glyph glyph-name="Z" unicode="Z" 
d="M595 709l-18 -65l-385 -543h238l93 -101h-511l13 66l382 542h-211l-126 101h525z" />
    <glyph glyph-name="one" unicode="1" horiz-adv-x="348" 
d="M96 477c5 40 106 220 126 264h118l-197 -741h-136l124 477h-35z" />
    <glyph glyph-name="two" unicode="2" horiz-adv-x="619" 
d="M608 677c0 -68 -34 -179 -85 -235l-309 -336h155l66 -106h-426l17 70l404 438l33 127h-138l-22 -89l-156 -65c25 93 25 260 156 260h227c39 0 78 -20 78 -64z" />
    <glyph glyph-name="three" unicode="3" 
d="M595 678c0 -43 -36 -140 -49 -187c-15 -61 -96 -84 -146 -106c31 -17 91 -44 91 -88c0 -67 -40 -164 -56 -229c-13 -44 -57 -68 -101 -68h-243c-39 0 -79 21 -79 65c0 42 40 163 53 209l114 -71l-26 -97h156l45 173l-140 93l9 42l189 92l37 129h-152l-26 -97l-153 -57
c25 93 25 260 156 260h240c38 0 81 -20 81 -63z" />
    <glyph glyph-name="four" unicode="4" horiz-adv-x="522" 
d="M21 247l364 494h126l-10 -41l-125 -166h117l-67 -251h72l-28 -104h-71l-71 -268l-106 89l45 179h-263zM295 283l59 219l-163 -219h104z" />
    <glyph glyph-name="five" unicode="5" horiz-adv-x="616" 
d="M103 380l108 361h396l-116 -106h-173l-50 -149c43 0 258 34 258 -64c0 -28 -79 -309 -91 -354c-10 -44 -59 -68 -101 -68h-232c-42 0 -93 31 -78 82l52 192l118 -60l-30 -108h145l72 274h-278z" />
    <glyph glyph-name="six" unicode="6" horiz-adv-x="566" 
d="M555 741l-67 -106h-183l-52 -204c39 0 269 36 269 -62c0 -25 -68 -260 -80 -301c-11 -44 -57 -68 -98 -68h-241c-42 0 -94 31 -79 82l158 591c12 47 60 68 103 68h270zM166 106h150l60 222h-153z" />
    <glyph glyph-name="seven" unicode="7" horiz-adv-x="562" 
d="M76 534l55 207h424c-2 -72 -345 -640 -402 -741h-141l361 635h-135l-16 -56z" />
    <glyph glyph-name="eight" unicode="8" horiz-adv-x="609" 
d="M518 741c38 0 81 -20 81 -63c0 -31 -44 -172 -55 -213c-14 -53 -63 -65 -108 -83c34 -16 66 -29 66 -72c0 -42 -48 -193 -61 -242c-12 -44 -60 -68 -104 -68h-246c-39 0 -79 20 -79 65c0 41 48 193 60 240c14 55 63 64 107 84c-28 16 -62 29 -62 68c0 55 40 159 55 216
c12 47 60 68 105 68h241zM153 106h159l52 189l-64 36l-98 -42zM451 635h-152l-44 -160l63 -34l94 40z" />
    <glyph glyph-name="nine" unicode="9" horiz-adv-x="613" 
d="M9 0l60 106h246l54 204c-40 0 -268 -37 -268 62c0 27 65 261 77 301c12 44 61 68 105 68h239c40 0 81 -20 81 -64c0 -35 -142 -542 -162 -609c-12 -44 -57 -68 -100 -68h-332zM457 635h-153l-57 -221h152z" />
    <glyph glyph-name="zero" unicode="0" horiz-adv-x="615" 
d="M523 741c39 0 80 -20 80 -64c0 -35 -140 -539 -158 -609c-14 -44 -61 -68 -104 -68h-248c-41 0 -81 20 -81 65c0 36 139 538 159 608c12 47 59 68 103 68h249zM457 635h-160l-143 -529h164z" />
    <glyph glyph-name="a" unicode="a" horiz-adv-x="445" 
d="M360 433c35 0 74 -13 74 -53c0 -34 -98 -402 -114 -461l-91 92c-47 -5 -98 -11 -148 -11c-34 0 -73 11 -73 51c0 51 25 110 39 160c15 58 62 62 113 62l-69 87c21 51 36 73 98 73h171zM310 343h-105l-19 -70h106zM269 186h-112l-25 -91h113z" />
    <glyph glyph-name="space" unicode=" " horiz-adv-x="177" 
 />
    <glyph glyph-name="b" unicode="b" horiz-adv-x="461" 
d="M380 434c35 0 75 -10 75 -52c0 -28 -63 -240 -73 -280c-18 -66 -94 -101 -159 -101h-217l188 710l79 -159l-35 -126c46 6 93 8 142 8zM218 93c22 0 40 5 47 28l59 216h-110l-65 -244h69z" />
    </font>
</defs>
</svg>
